<?xml version="1.0" encoding="UTF-8"?>
<svg version="1.1" xmlns="http://www.w3.org/2000/svg" width="64" height="64">
<path d="M0 0 C21.12 0 42.24 0 64 0 C64 21.12 64 42.24 64 64 C42.88 64 21.76 64 0 64 C0 42.88 0 21.76 0 0 Z " fill="#F86C37" transform="translate(0,0)"/>
<path d="M0 0 C21.12 0 42.24 0 64 0 C64 21.12 64 42.24 64 64 C59.38 64 54.76 64 50 64 C50 63.34 50 62.68 50 62 C49.01 62 48.02 62 47 62 C47 61.34 47 60.68 47 60 C45.02 60 43.04 60 41 60 C41 55.05 41 50.1 41 45 C42.65 45 44.3 45 46 45 C45.979375 44.030625 45.95875 43.06125 45.9375 42.0625 C46 39 46 39 47 38 C48.99958364 37.95919217 51.00045254 37.95745644 53 38 C54.60881575 45.42640842 55.26442904 52.40501039 55 60 C55.99 60 56.98 60 58 60 C58 49.77 58 39.54 58 29 C53.71 29 49.42 29 45 29 C41.1875 26.625 41.1875 26.625 39 24 C39 23.34 39 22.68 39 22 C35.60807637 22.59283621 33.7892243 23.76743189 31.25 26.0625 C30.63640625 26.61035156 30.0228125 27.15820312 29.390625 27.72265625 C28.93171875 28.14417969 28.4728125 28.56570312 28 29 C25.82291677 25.23508909 23.66014965 21.4621482 21.5 17.6875 C20.87996094 16.61564453 20.25992187 15.54378906 19.62109375 14.43945312 C19.03457031 13.41142578 18.44804687 12.38339844 17.84375 11.32421875 C17.29912109 10.37635498 16.75449219 9.42849121 16.19335938 8.4519043 C15 6 15 6 15 3 C12.69 3 10.38 3 8 3 C7.7525 3.556875 7.505 4.11375 7.25 4.6875 C5.78393985 7.39971127 3.97010529 9.63587365 2 12 C4.64 10.68 7.28 9.36 10 8 C10 13.61 10 19.22 10 25 C7.03 25 4.06 25 1 25 C-1.02274647 16.90901413 0 8.33999734 0 0 Z " fill="#D1B4B5" transform="translate(0,0)"/>
<path d="M0 0 C2.67876553 3.57168738 4.01426992 6.16934799 5.59375 10.26171875 C6.06683594 11.46248047 6.53992188 12.66324219 7.02734375 13.90039062 C7.76867552 15.80156381 8.5063515 17.70401685 9.23876953 19.60864258 C9.95155783 21.45511048 10.67869324 23.29601996 11.40625 25.13671875 C11.83228516 26.23717529 12.25832031 27.33763184 12.69726562 28.47143555 C13.79164178 31.31860575 13.79164178 31.31860575 17 32 C17 33.65 17 35.3 17 37 C18.65 37 20.3 37 22 37 C22 38.65 22 40.3 22 42 C18.535 42.495 18.535 42.495 15 43 C15 43.66 15 44.32 15 45 C16.65 45.33 18.3 45.66 20 46 C20.33 45.34 20.66 44.68 21 44 C21 46.64 21 49.28 21 52 C19.35 52 17.7 52 16 52 C16 52.66 16 53.32 16 54 C15.01 54 14.02 54 13 54 C13 54.66 13 55.32 13 56 C5.08 56 -2.84 56 -11 56 C-11 44.78 -11 33.56 -11 22 C-7.04 21.505 -7.04 21.505 -3 21 C-4.32 20.34 -5.64 19.68 -7 19 C-3.535 18.505 -3.535 18.505 0 18 C0 12.06 0 6.12 0 0 Z " fill="#DAA8AC" transform="translate(11,8)"/>
<path d="M0 0 C13.53 0 27.06 0 41 0 C41 8.25 41 16.5 41 25 C40.34 24.67 39.68 24.34 39 24 C39 23.34 39 22.68 39 22 C35.60807637 22.59283621 33.7892243 23.76743189 31.25 26.0625 C30.63640625 26.61035156 30.0228125 27.15820312 29.390625 27.72265625 C28.93171875 28.14417969 28.4728125 28.56570312 28 29 C25.82291677 25.23508909 23.66014965 21.4621482 21.5 17.6875 C20.87996094 16.61564453 20.25992187 15.54378906 19.62109375 14.43945312 C19.03457031 13.41142578 18.44804687 12.38339844 17.84375 11.32421875 C17.29912109 10.37635498 16.75449219 9.42849121 16.19335938 8.4519043 C15 6 15 6 15 3 C12.69 3 10.38 3 8 3 C7.7525 3.556875 7.505 4.11375 7.25 4.6875 C5.78393985 7.39971127 3.97010529 9.63587365 2 12 C4.64 10.68 7.28 9.36 10 8 C10 13.61 10 19.22 10 25 C7.03 25 4.06 25 1 25 C0.16621907 21.66487626 -0.11814364 19.37555768 -0.09765625 16.015625 C-0.09515869 15.17290039 -0.09266113 14.33017578 -0.09008789 13.46191406 C-0.08098389 12.40198242 -0.07187988 11.34205078 -0.0625 10.25 C-0.041875 6.8675 -0.02125 3.485 0 0 Z " fill="#DB9B9F" transform="translate(0,0)"/>
<path d="M0 0 C1.010625 0.185625 2.02125 0.37125 3.0625 0.5625 C3.41441406 1.28953125 3.76632812 2.0165625 4.12890625 2.765625 C9.57176509 13.96194645 9.57176509 13.96194645 16.0625 24.5625 C18.83292109 24.5625 19.64414956 23.3788115 21.6875 21.5625 C22.31914063 21.005625 22.95078125 20.44875 23.6015625 19.875 C24.08367188 19.441875 24.56578125 19.00875 25.0625 18.5625 C29.75 22.17578125 29.75 22.17578125 31.0625 23.5625 C31.0625 24.5525 31.0625 25.5425 31.0625 26.5625 C30.43601563 26.66046875 29.80953125 26.7584375 29.1640625 26.859375 C28.34679688 27.00890625 27.52953125 27.1584375 26.6875 27.3125 C25.87539063 27.45171875 25.06328125 27.5909375 24.2265625 27.734375 C21.88540908 28.37999261 21.88540908 28.37999261 20.7734375 30.640625 C20.53882813 31.27484375 20.30421875 31.9090625 20.0625 32.5625 C21.0525 33.8825 22.0425 35.2025 23.0625 36.5625 C19.4325 36.5625 15.8025 36.5625 12.0625 36.5625 C8.1025 26.9925 4.1425 17.4225 0.0625 7.5625 C0.0625 11.5225 0.0625 15.4825 0.0625 19.5625 C-0.2675 20.5525 -0.5975 21.5425 -0.9375 22.5625 C-0.2775 22.8925 0.3825 23.2225 1.0625 23.5625 C0.423125 24.036875 -0.21625 24.51125 -0.875 25 C-2.82043306 26.39988726 -2.82043306 26.39988726 -3.9375 27.5625 C-6.60808851 27.70365161 -9.26182238 27.60497107 -11.9375 27.5625 C-11.9375 24.5925 -11.9375 21.6225 -11.9375 18.5625 C-9.9575 18.5625 -7.9775 18.5625 -5.9375 18.5625 C-5.9375 18.8925 -5.9375 19.2225 -5.9375 19.5625 C-7.5875 19.5625 -9.2375 19.5625 -10.9375 19.5625 C-10.9375 20.5525 -10.9375 21.5425 -10.9375 22.5625 C-7.9675 22.5625 -4.9975 22.5625 -1.9375 22.5625 C-2.10121094 21.85738281 -2.26492188 21.15226562 -2.43359375 20.42578125 C-2.95449824 17.46591312 -3.03616732 14.75188727 -3 11.75 C-2.99097656 10.77417969 -2.98195313 9.79835938 -2.97265625 8.79296875 C-2.96105469 8.05691406 -2.94945312 7.32085937 -2.9375 6.5625 C-4.9175 7.8825 -6.8975 9.2025 -8.9375 10.5625 C-9.5975 10.2325 -10.2575 9.9025 -10.9375 9.5625 C-5.17820022 0.73974289 -5.17820022 0.73974289 0 0 Z " fill="#DF2112" transform="translate(11.9375,2.4375)"/>
<path d="M0 0 C1.4540625 0.0309375 1.4540625 0.0309375 2.9375 0.0625 C4.54631575 7.48890842 5.20192904 14.46751039 4.9375 22.0625 C5.9275 22.0625 6.9175 22.0625 7.9375 22.0625 C7.9375 21.0725 7.9375 20.0825 7.9375 19.0625 C9.9175 19.0625 11.8975 19.0625 13.9375 19.0625 C13.9375 21.3725 13.9375 23.6825 13.9375 26.0625 C9.3175 26.0625 4.6975 26.0625 -0.0625 26.0625 C-0.0625 25.4025 -0.0625 24.7425 -0.0625 24.0625 C-1.0525 24.0625 -2.0425 24.0625 -3.0625 24.0625 C-3.0625 23.4025 -3.0625 22.7425 -3.0625 22.0625 C-5.0425 22.0625 -7.0225 22.0625 -9.0625 22.0625 C-9.0625 17.1125 -9.0625 12.1625 -9.0625 7.0625 C-7.4125 7.0625 -5.7625 7.0625 -4.0625 7.0625 C-4.083125 6.093125 -4.10375 5.12375 -4.125 4.125 C-4.0425 0.0825 -4.0425 0.0825 0 0 Z " fill="#654AA8" transform="translate(50.0625,37.9375)"/>
<path d="M0 0 C2.66256357 3.20139259 4.09852156 6.38764067 5.59375 10.26171875 C6.30337891 12.06286133 6.30337891 12.06286133 7.02734375 13.90039062 C7.76867552 15.80156381 8.5063515 17.70401685 9.23876953 19.60864258 C9.95155783 21.45511048 10.67869324 23.29601996 11.40625 25.13671875 C11.83228516 26.23717529 12.25832031 27.33763184 12.69726562 28.47143555 C13.79164178 31.31860575 13.79164178 31.31860575 17 32 C17 33.65 17 35.3 17 37 C18.65 37 20.3 37 22 37 C22 38.65 22 40.3 22 42 C15.07 42 8.14 42 1 42 C3 38 3 38 5.1875 35.5625 C7.27682158 33.18924125 7.27682158 33.18924125 6.8046875 30.56640625 C5.92717957 27.76775232 4.87938625 26.53265138 2.9375 24.375 C-2.06577 17.38952757 -0.4485224 8.16476892 0 0 Z " fill="#DAB9BD" transform="translate(11,8)"/>
<path d="M0 0 C2.36982322 -0.05270373 4.73521876 -0.0874571 7.10571289 -0.08007812 C7.93006836 -0.1084375 8.75442383 -0.13679687 9.60375977 -0.16601562 C11.89984807 -0.17347651 13.93083826 -0.09785331 16.16821289 0.41992188 C18.58000785 3.00136781 19.08023449 4.61638585 19.46118164 8.09570312 C19.42637695 8.96582031 19.39157227 9.8359375 19.35571289 10.73242188 C19.32864258 11.61542969 19.30157227 12.4984375 19.27368164 13.40820312 C19.23887695 14.07207031 19.20407227 14.7359375 19.16821289 15.41992188 C15.48355384 12.13004772 13.38927107 8.78271473 11.16821289 4.41992188 C11.16821289 3.42992187 11.16821289 2.43992187 11.16821289 1.41992188 C8.85821289 1.41992188 6.54821289 1.41992188 4.16821289 1.41992188 C3.92071289 1.97679687 3.67321289 2.53367187 3.41821289 3.10742188 C1.95215274 5.81963315 0.13831819 8.05579552 -1.83178711 10.41992188 C0.80821289 9.09992187 3.44821289 7.77992187 6.16821289 6.41992188 C6.16821289 12.02992187 6.16821289 17.63992187 6.16821289 23.41992188 C3.19821289 23.41992188 0.22821289 23.41992188 -2.83178711 23.41992188 C-3.86007043 19.30678858 -4.01550692 15.55720711 -4.01928711 11.35742188 C-4.0315332 10.63748047 -4.0437793 9.91753906 -4.05639648 9.17578125 C-4.07935087 0.93515707 -4.07935087 0.93515707 0 0 Z " fill="#DABABD" transform="translate(3.831787109375,1.580078125)"/>
<path d="M0 0 C2.26979665 -0.10794277 4.54105196 -0.18556176 6.8125 -0.25 C8.07707031 -0.29640625 9.34164062 -0.3428125 10.64453125 -0.390625 C14 0 14 0 15.9140625 1.76953125 C17.57342167 5.17778335 17.88692523 8.358559 17 12 C14.12277073 15.28826203 12.22835983 16.74931432 7.9375 17.625 C4.04265113 16.79630875 2.54436239 14.98053881 0 12 C-0.33 11.67 -0.66 11.34 -1 11 C-1.17500551 7.14987889 -0.80443145 3.75401344 0 0 Z " fill="#F8B243" transform="translate(44,0)"/>
<path d="M0 0 C4.96142433 -0.87042532 4.96142433 -0.87042532 8 0 C11.04198114 2.93573548 13.32695049 6.11512232 15 10 C14.79372542 13.86617495 13.43364584 16.26302004 11.125 19.3125 C10.61195312 20.00988281 10.09890625 20.70726563 9.5703125 21.42578125 C8.79300781 22.20501953 8.79300781 22.20501953 8 23 C7.01 23 6.02 23 5 23 C3.140625 20.953125 3.140625 20.953125 1.25 18.25 C0.61578125 17.36828125 -0.0184375 16.4865625 -0.671875 15.578125 C-2 13 -2 13 -1.86328125 10.90625 C-0.91435272 8.81087841 0.18252263 7.08996982 1.5625 5.25 C2.01753906 4.63640625 2.47257813 4.0228125 2.94140625 3.390625 C3.29074219 2.93171875 3.64007813 2.4728125 4 2 C2.68 1.34 1.36 0.68 0 0 Z " fill="#B95FB3" transform="translate(4,27)"/>
<path d="M0 0 C10.56 0 21.12 0 32 0 C32 0.99 32 1.98 32 3 C30.35 3 28.7 3 27 3 C27 3.66 27 4.32 27 5 C26.01 5 25.02 5 24 5 C24 5.66 24 6.32 24 7 C16.08 7 8.16 7 0 7 C0 4.69 0 2.38 0 0 Z " fill="#6155C4" transform="translate(0,57)"/>
<path d="M0 0 C0.33 0 0.66 0 1 0 C1 10.56 1 21.12 1 32 C-0.98 32 -2.96 32 -5 32 C-5 22.43 -5 12.86 -5 3 C-7.97 3 -10.94 3 -14 3 C-14 2.67 -14 2.34 -14 2 C-13.07316406 1.93941406 -12.14632812 1.87882812 -11.19140625 1.81640625 C-9.39509766 1.69072266 -9.39509766 1.69072266 -7.5625 1.5625 C-5.77005859 1.44068359 -5.77005859 1.44068359 -3.94140625 1.31640625 C-1.11429756 1.32343886 -1.11429756 1.32343886 0 0 Z " fill="#D9BEC1" transform="translate(63,25)"/>
<path d="M0 0 C1.98 0 3.96 0 6 0 C6.11594584 3.93725326 6.18716464 7.87406923 6.25 11.8125 C6.30027344 13.49182617 6.30027344 13.49182617 6.3515625 15.20507812 C6.36445312 16.27822266 6.37734375 17.35136719 6.390625 18.45703125 C6.41157227 19.44678955 6.43251953 20.43654785 6.45410156 21.45629883 C6 24 6 24 3.97558594 25.84643555 C3.32364258 26.22711182 2.67169922 26.60778809 2 27 C-3.18629276 20.35506241 -2.77795783 13.15951121 -2 5 C-0.9765625 2.0390625 -0.9765625 2.0390625 0 0 Z " fill="#DABCBF" transform="translate(26,2)"/>
<path d="M0 0 C1.4540625 0.0309375 1.4540625 0.0309375 2.9375 0.0625 C4.0952506 3.53575181 4.00616652 6.42317448 3.9375 10.0625 C1.9575 10.0625 -0.0225 10.0625 -2.0625 10.0625 C-2.0625 13.0325 -2.0625 16.0025 -2.0625 19.0625 C-4.3725 19.0625 -6.6825 19.0625 -9.0625 19.0625 C-9.0625 15.1025 -9.0625 11.1425 -9.0625 7.0625 C-7.4125 7.0625 -5.7625 7.0625 -4.0625 7.0625 C-4.083125 6.093125 -4.10375 5.12375 -4.125 4.125 C-4.0425 0.0825 -4.0425 0.0825 0 0 Z " fill="#D9BCC0" transform="translate(50.0625,37.9375)"/>
<path d="M0 0 C1.65 0 3.3 0 5 0 C5 8.25 5 16.5 5 25 C4.34 24.67 3.68 24.34 3 24 C3 23.34 3 22.68 3 22 C0.525 21.01 0.525 21.01 -2 20 C-2 16 -2 16 -1 13 C-0.77548542 10.77425665 -0.59217122 8.54418481 -0.4375 6.3125 C-0.35371094 5.13300781 -0.26992188 3.95351563 -0.18359375 2.73828125 C-0.12300781 1.83464844 -0.06242187 0.93101562 0 0 Z " fill="#DF8085" transform="translate(36,0)"/>
<path d="M0 0 C1.010625 0.185625 2.02125 0.37125 3.0625 0.5625 C2.7325 1.2225 2.4025 1.8825 2.0625 2.5625 C1.4025 2.5625 0.7425 2.5625 0.0625 2.5625 C0.07410156 3.75488281 0.08570313 4.94726562 0.09765625 6.17578125 C0.10703592 7.74218594 0.11613593 9.30859231 0.125 10.875 C0.13337891 11.66068359 0.14175781 12.44636719 0.15039062 13.25585938 C0.15361328 14.01318359 0.15683594 14.77050781 0.16015625 15.55078125 C0.16539307 16.24727783 0.17062988 16.94377441 0.17602539 17.66137695 C0.0625 19.5625 0.0625 19.5625 -0.9375 22.5625 C-0.2775 22.8925 0.3825 23.2225 1.0625 23.5625 C0.423125 24.036875 -0.21625 24.51125 -0.875 25 C-2.82043306 26.39988726 -2.82043306 26.39988726 -3.9375 27.5625 C-6.60808851 27.70365161 -9.26182238 27.60497107 -11.9375 27.5625 C-11.9375 24.5925 -11.9375 21.6225 -11.9375 18.5625 C-9.9575 18.5625 -7.9775 18.5625 -5.9375 18.5625 C-5.9375 18.8925 -5.9375 19.2225 -5.9375 19.5625 C-7.5875 19.5625 -9.2375 19.5625 -10.9375 19.5625 C-10.9375 20.5525 -10.9375 21.5425 -10.9375 22.5625 C-7.9675 22.5625 -4.9975 22.5625 -1.9375 22.5625 C-2.10121094 21.85738281 -2.26492188 21.15226562 -2.43359375 20.42578125 C-2.95449824 17.46591312 -3.03616732 14.75188727 -3 11.75 C-2.99097656 10.77417969 -2.98195313 9.79835938 -2.97265625 8.79296875 C-2.96105469 8.05691406 -2.94945312 7.32085937 -2.9375 6.5625 C-4.9175 7.8825 -6.8975 9.2025 -8.9375 10.5625 C-9.5975 10.2325 -10.2575 9.9025 -10.9375 9.5625 C-5.17820022 0.73974289 -5.17820022 0.73974289 0 0 Z " fill="#EC6140" transform="translate(11.9375,2.4375)"/>
<path d="M0 0 C0 10.23 0 20.46 0 31 C-0.99 31 -1.98 31 -3 31 C-3.84800767 23.307359 -4.12152487 15.73708326 -4 8 C-5.32 7.67 -6.64 7.34 -8 7 C-6.8572081 5.83035398 -5.71068285 4.66435444 -4.5625 3.5 C-3.92441406 2.8503125 -3.28632812 2.200625 -2.62890625 1.53125 C-1 0 -1 0 0 0 Z " fill="#F0332B" transform="translate(58,29)"/>
<path d="M0 0 C3.27733036 3.76136684 4.86068073 8.11473109 6.6875 12.6875 C7.00783203 13.47189453 7.32816406 14.25628906 7.65820312 15.06445312 C10 20.84155117 10 20.84155117 10 22 C7.36 22 4.72 22 2 22 C-0.35582065 17.37183267 -0.23521469 13.24465865 -0.125 8.1875 C-0.11597656 7.39923828 -0.10695313 6.61097656 -0.09765625 5.79882812 C-0.07422504 3.86575334 -0.03835838 1.9328362 0 0 Z " fill="#DDAAAC" transform="translate(11,8)"/>
<path d="M0 0 C1.65 0 3.3 0 5 0 C5 0.66 5 1.32 5 2 C7.64 2 10.28 2 13 2 C13.33 1.34 13.66 0.68 14 0 C14 1.65 14 3.3 14 5 C3.44 5 -7.12 5 -18 5 C-18 4.01 -18 3.02 -18 2 C-12.06 2 -6.12 2 0 2 C0 1.34 0 0.68 0 0 Z " fill="#D8BCBF" transform="translate(18,52)"/>
<path d="M0 0 C2.64 0 5.28 0 8 0 C8 1.32 8 2.64 8 4 C6.68 4 5.36 4 4 4 C4 9.28 4 14.56 4 20 C2.68 20 1.36 20 0 20 C0 13.4 0 6.8 0 0 Z " fill="#F22F25" transform="translate(37,40)"/>
<path d="M0 0 C3.79290226 4.36892713 6.48025861 9.14318901 9.25 14.1875 C9.70890625 15.00669922 10.1678125 15.82589844 10.640625 16.66992188 C14 22.74379185 14 22.74379185 14 25 C14.99 25.33 15.98 25.66 17 26 C16.01 26.99 15.02 27.98 14 29 C11.70629288 25.08452489 9.41538902 21.16741684 7.125 17.25 C6.47402344 16.13882812 5.82304687 15.02765625 5.15234375 13.8828125 C4.21455078 12.27792969 4.21455078 12.27792969 3.2578125 10.640625 C2.6817627 9.65610352 2.10571289 8.67158203 1.51220703 7.65722656 C0.26495819 5.4655804 -0.90295924 3.26941478 -2 1 C-1.34 0.67 -0.68 0.34 0 0 Z " fill="#F0332A" transform="translate(14,4)"/>
<path d="M0 0 C1.98 0 3.96 0 6 0 C6 3.96 6 7.92 6 12 C4.02 12 2.04 12 0 12 C0 8.04 0 4.08 0 0 Z " fill="#7879FD" transform="translate(48,48)"/>
<path d="M0 0 C6.93 0 13.86 0 21 0 C23.83932141 5.67864282 24.35623751 7.4129413 24.1875 13.375 C24.16042969 14.62023438 24.13335938 15.86546875 24.10546875 17.1484375 C24.07066406 18.08945312 24.03585938 19.03046875 24 20 C21.45292569 16.17938854 21.91034511 13.92003734 22.125 9.47265625 C22.1469044 6.62466713 22.1469044 6.62466713 20 3 C14.06 2.67 8.12 2.34 2 2 C1.67 2.99 1.34 3.98 1 5 C0.67 5 0.34 5 0 5 C0 3.35 0 1.7 0 0 Z " fill="#B77974" transform="translate(0,0)"/>
<path d="M0 0 C4.47915328 -0.02886338 8.95828291 -0.04675187 13.4375 -0.0625 C14.71689453 -0.07087891 15.99628906 -0.07925781 17.31445312 -0.08789062 C19.13686523 -0.09272461 19.13686523 -0.09272461 20.99609375 -0.09765625 C22.12200928 -0.10289307 23.2479248 -0.10812988 24.40795898 -0.11352539 C27 0 27 0 28 1 C28.07179964 2.51928038 28.08392007 4.04167482 28.0625 5.5625 C28.05347656 6.38878906 28.04445313 7.21507812 28.03515625 8.06640625 C28.02355469 8.70449219 28.01195313 9.34257813 28 10 C27.67 10 27.34 10 27 10 C26.67 8.02 26.34 6.04 26 4 C23.69 4 21.38 4 19 4 C19.66 3.67 20.32 3.34 21 3 C21 2.34 21 1.68 21 1 C14.07 1 7.14 1 0 1 C0 0.67 0 0.34 0 0 Z " fill="#EB7D78" transform="translate(5,50)"/>
<path d="M0 0 C0.33 0 0.66 0 1 0 C1 3.63 1 7.26 1 11 C-1.64 11 -4.28 11 -7 11 C-5.23867546 6.99698968 -2.73867517 3.3971023 0 0 Z " fill="#827BF7" transform="translate(9,28)"/>
<path d="M0 0 C1.98 0 3.96 0 6 0 C6 0.33 6 0.66 6 1 C4.35 1 2.7 1 1 1 C1 1.99 1 2.98 1 4 C3.97 4 6.94 4 10 4 C9.34 5.65 8.68 7.3 8 9 C5.36 9 2.72 9 0 9 C0 6.03 0 3.06 0 0 Z " fill="#F28276" transform="translate(0,21)"/>
<path d="M0 0 C1.33895632 1.66215268 2.67130142 3.32963607 4 5 C4.5775 5.721875 5.155 6.44375 5.75 7.1875 C7 9 7 9 7 11 C4.69 11 2.38 11 0 11 C0 7.37 0 3.74 0 0 Z " fill="#685DD4" transform="translate(11,27)"/>
<path d="M0 0 C2.64 0 5.28 0 8 0 C7.125 4.875 7.125 4.875 6 6 C3.64686445 6.07271741 1.29166332 6.08370868 -1.0625 6.0625 C-2.35285156 6.05347656 -3.64320312 6.04445313 -4.97265625 6.03515625 C-5.97167969 6.02355469 -6.97070312 6.01195312 -8 6 C-8 5.34 -8 4.68 -8 4 C-3.38 4 1.24 4 6 4 C5.67 3.34 5.34 2.68 5 2 C2.47266765 1.34444881 2.47266765 1.34444881 0 1 C0 0.67 0 0.34 0 0 Z " fill="#F38377" transform="translate(56,21)"/>
<path d="M0 0 C2.31 0 4.62 0 7 0 C5.6062718 4.43458973 3.39417765 6.87378374 0 10 C0 6.7 0 3.4 0 0 Z " fill="#D8BAC0" transform="translate(0,30)"/>
<path d="M0 0 C0.99 0.33 1.98 0.66 3 1 C3 6.28 3 11.56 3 17 C0 14 0 14 -0.29296875 10.64453125 C-0.25816406 9.37996094 -0.22335938 8.11539062 -0.1875 6.8125 C-0.16042969 5.54019531 -0.13335937 4.26789062 -0.10546875 2.95703125 C-0.07066406 1.98121094 -0.03585938 1.00539062 0 0 Z " fill="#D9A6AA" transform="translate(37,0)"/>
<path d="M0 0 C2.64 0 5.28 0 8 0 C7.04367001 1.29315061 6.08486149 2.58446853 5.125 3.875 C4.59132813 4.59429687 4.05765625 5.31359375 3.5078125 6.0546875 C2 8 2 8 0 10 C0 6.7 0 3.4 0 0 Z " fill="#7B7CFB" transform="translate(11,40)"/>
<path d="M0 0 C2.31 0 4.62 0 7 0 C7 2.97 7 5.94 7 9 C4.03595495 6.19195732 1.55500981 3.81684226 0 0 Z " fill="#7837AC" transform="translate(3,40)"/>
<path d="M0 0 C3.63 0 7.26 0 11 0 C11 0.33 11 0.66 11 1 C9.824375 1.0928125 9.824375 1.0928125 8.625 1.1875 C7.75875 1.455625 6.8925 1.72375 6 2 C4.62533375 4.47636012 4.62533375 4.47636012 4 7 C1.23609263 4.59660228 0.95934081 3.83736322 0 0 Z " fill="#E1A9A4" transform="translate(21,0)"/>
<path d="M0 0 C2 0 2 0 4.125 1.8125 C6 4 6 4 6 7 C4.02 7 2.04 7 0 7 C0 4.69 0 2.38 0 0 Z " fill="#F23B2E" transform="translate(37,22)"/>
<path d="M0 0 C2.31 0 4.62 0 7 0 C7 0.99 7 1.98 7 3 C8.98 3 10.96 3 13 3 C13 3.33 13 3.66 13 4 C8.71 3.67 4.42 3.34 0 3 C0 2.01 0 1.02 0 0 Z " fill="#6A5DD4" transform="translate(41,57)"/>
<path d="M0 0 C1.47899501 2.95799003 1.13178874 5.6483576 1.125 8.9375 C1.12886719 10.80728516 1.12886719 10.80728516 1.1328125 12.71484375 C1 16 1 16 0 19 C0.66 19.33 1.32 19.66 2 20 C1.01 20.33 0.02 20.66 -1 21 C-2.39972111 14.31244358 -1.88043601 7.75000941 -1 1 C-0.67 0.67 -0.34 0.34 0 0 Z " fill="#F44B65" transform="translate(11,6)"/>
<path d="M0 0 C1.65 0 3.3 0 5 0 C5.33 0.99 5.66 1.98 6 3 C1.38 3 -3.24 3 -8 3 C-8 2.67 -8 2.34 -8 2 C-5.36 1.67 -2.72 1.34 0 1 C0 0.67 0 0.34 0 0 Z " fill="#E1AFAF" transform="translate(56,22)"/>
<path d="M0 0 C0.33 0 0.66 0 1 0 C1.16808419 2.10405391 1.33441948 4.20824758 1.5 6.3125 C1.5928125 7.48425781 1.685625 8.65601563 1.78125 9.86328125 C1.92364989 11.905194 2 13.9531279 2 16 C1.34 16 0.68 16 0 16 C-1.18224668 12.45325997 -0.89329634 10.02477005 -0.5625 6.3125 C-0.46066406 5.13300781 -0.35882813 3.95351563 -0.25390625 2.73828125 C-0.17011719 1.83464844 -0.08632813 0.93101562 0 0 Z " fill="#E3696E" transform="translate(36,0)"/>
<path d="M0 0 C1.98 0 3.96 0 6 0 C6.33 0.66 6.66 1.32 7 2 C4.69 2.33 2.38 2.66 0 3 C0 2.01 0 1.02 0 0 Z " fill="#E7561F" transform="translate(50,0)"/>
</svg>
